<?xml version="1.0" encoding="UTF-8"?>
<svg version="1.1" xmlns="http://www.w3.org/2000/svg" width="192" height="192">
<path d="M0 0 C63.36 0 126.72 0 192 0 C192 63.36 192 126.72 192 192 C128.64 192 65.28 192 0 192 C0 128.64 0 65.28 0 0 Z " fill="#282828" transform="translate(0,0)"/>
<path d="M0 0 C1.9375 0.0625 1.9375 0.0625 4 1 C5.6875 3.5 5.6875 3.5 7 6 C7.33 6.33 7.66 6.66 8 7 C8.1328125 8.8203125 8.1328125 8.8203125 8.125 11.125 C8.12242188 11.94226563 8.11984375 12.75953125 8.1171875 13.6015625 C8 16 8 16 7.25 19.5 C6.94170886 23.81607603 8.18470434 26.1116479 10.07421875 29.91015625 C11.16690979 32.37677948 11.34468468 34.32869376 11 37 C9.02 37 7.04 37 5 37 C5 38.98 5 40.96 5 43 C3.68 43 2.36 43 1 43 C1 41.35 1 39.7 1 38 C0.34 38 -0.32 38 -1 38 C-1.495 40.475 -1.495 40.475 -2 43 C-2.99 42.67 -3.98 42.34 -5 42 C-5 40.68 -5 39.36 -5 38 C-6.32 37.67 -7.64 37.34 -9 37 C-8.86722656 36.28714844 -8.73445313 35.57429688 -8.59765625 34.83984375 C-8.23290386 32.86166105 -7.8737567 30.88243855 -7.51953125 28.90234375 C-7.21569548 27.20497551 -6.90423579 25.50887896 -6.57421875 23.81640625 C-5.91107805 20.10122042 -5.80426495 19.29360257 -8 16 C-8.59765625 13.87890625 -8.59765625 13.87890625 -9.0625 11.5625 C-9.65073277 8.68939616 -10.26884309 5.84051225 -11 3 C-8.66229203 2.30734579 -6.83200144 2.00399997 -4.375 2.0625 C-1.80875196 2.26759225 -1.80875196 2.26759225 0 0 Z " fill="#BCBCF2" transform="translate(110,73)"/>
<path d="M0 0 C2.96382758 0.99185517 4.43379022 1.99835637 7 4 C8.125 7.5 8.125 7.5 8 11 C7.25556641 11.86044922 7.25556641 11.86044922 6.49609375 12.73828125 C4.36193649 15.96459209 4.76131171 18.97027251 4.9375 22.6875 C5.09855862 28.80772738 4.69536857 34.06621001 3 40 C2.01 40 1.02 40 0 40 C0 38.35 0 36.7 0 35 C-1.32 35 -2.64 35 -4 35 C-4 36.65 -4 38.3 -4 40 C-4.99 40 -5.98 40 -7 40 C-8.37407327 32.39352296 -9.20680606 25.1961663 -8.875 17.4609375 C-8.80267683 14.74155907 -8.80267683 14.74155907 -11 12 C-11.66115702 5.05785124 -11.66115702 5.05785124 -9.4375 1.5 C-6.00542032 -0.61204904 -3.9789375 -0.53951695 0 0 Z " fill="#E2B874" transform="translate(85,75)"/>
<path d="M0 0 C0.66 0 1.32 0 2 0 C2.33 1.32 2.66 2.64 3 4 C3.33 3.67 3.66 3.34 4 3 C6.9375 2.75 6.9375 2.75 10 3 C13.71684142 8.57526212 13.50422039 16.76081672 12.5625 23.3125 C12.376875 24.199375 12.19125 25.08625 12 26 C11.01 26 10.02 26 9 26 C9 24.35 9 22.7 9 21 C7.68 21 6.36 21 5 21 C5 22.65 5 24.3 5 26 C4.01 26 3.02 26 2 26 C0.3960652 17.24996282 -0.26197285 8.89252296 0 0 Z " fill="#F1C37A" transform="translate(76,89)"/>
<path d="M0 0 C1.9375 0.0625 1.9375 0.0625 4 1 C5.6875 3.5 5.6875 3.5 7 6 C7.33 6.33 7.66 6.66 8 7 C8.07179964 8.51928038 8.08392007 10.04167482 8.0625 11.5625 C8.05347656 12.38878906 8.04445313 13.21507813 8.03515625 14.06640625 C8.02355469 14.70449219 8.01195313 15.34257813 8 16 C7.34 16 6.68 16 6 16 C5.67 13.36 5.34 10.72 5 8 C0.28596212 8.47939368 -3.66579301 8.96834048 -8 11 C-11.07692308 6.56923077 -11.07692308 6.56923077 -10.6875 3.6875 C-10.460625 3.130625 -10.23375 2.57375 -10 2 C-8.72125 2.04125 -7.4425 2.0825 -6.125 2.125 C-3.98128508 2.24212873 -3.98128508 2.24212873 -2 2 C-1.34 1.34 -0.68 0.68 0 0 Z " fill="#BEBEF6" transform="translate(110,73)"/>
<path d="M0 0 C1.65 0 3.3 0 5 0 C5.67305018 1.60149886 6.33822227 3.20631029 7 4.8125 C7.37125 5.70582031 7.7425 6.59914063 8.125 7.51953125 C9 10 9 10 9 13 C5.04 13 1.08 13 -3 13 C-2.01 8.71 -1.02 4.42 0 0 Z " fill="#343439" transform="translate(108,94)"/>
<path d="M0 0 C3.7109611 0.31991044 4.99743948 0.7900419 7.625 3.3125 C6.875 8.0625 6.875 8.0625 4.625 10.3125 C-1.47083333 10.86666667 -1.47083333 10.86666667 -4.3125 9.125 C-5.73905327 6.69146796 -5.73071424 5.08707104 -5.375 2.3125 C-3.375 0.3125 -3.375 0.3125 0 0 Z " fill="#4F4638" transform="translate(82.375,78.6875)"/>
<path d="M0 0 C1.99954746 -0.04254356 4.00041636 -0.04080783 6 0 C7 1 7 1 7.1328125 3.90625 C7.12894531 5.68515625 7.12894531 5.68515625 7.125 7.5 C7.12757812 8.6859375 7.13015625 9.871875 7.1328125 11.09375 C7 14 7 14 6 15 C4.33382885 15.04063832 2.66611905 15.042721 1 15 C-0.00109515 11.68929162 -0.10356134 8.69915231 -0.0625 5.25 C-0.05347656 4.26515625 -0.04445313 3.2803125 -0.03515625 2.265625 C-0.02355469 1.51796875 -0.01195313 0.7703125 0 0 Z " fill="#37332D" transform="translate(80,92)"/>
<path d="M0 0 C0.33 0 0.66 0 1 0 C1 1.65 1 3.3 1 5 C-0.98 5 -2.96 5 -5 5 C-5 6.98 -5 8.96 -5 11 C-6.32 11 -7.64 11 -9 11 C-9 9.35 -9 7.7 -9 6 C-9.66 6 -10.32 6 -11 6 C-11.33 7.65 -11.66 9.3 -12 11 C-12.99 10.67 -13.98 10.34 -15 10 C-15 8.68 -15 7.36 -15 6 C-16.32 5.67 -17.64 5.34 -19 5 C-18.67 4.01 -18.34 3.02 -18 2 C-18 2.66 -18 3.32 -18 4 C-12.06 4 -6.12 4 0 4 C0 2.68 0 1.36 0 0 Z " fill="#9F9FCE" transform="translate(120,105)"/>
<path d="M0 0 C2.01822917 0.06510417 4.03645833 0.13020833 6.0546875 0.1953125 C6.1796875 3.5703125 6.1796875 3.5703125 6.0546875 7.1953125 C4.0546875 9.1953125 4.0546875 9.1953125 0.9296875 9.3203125 C-0.0190625 9.2790625 -0.9678125 9.2378125 -1.9453125 9.1953125 C-2.6053125 6.8853125 -3.2653125 4.5753125 -3.9453125 2.1953125 C-1.9453125 0.1953125 -1.9453125 0.1953125 0 0 Z " fill="#3A3A42" transform="translate(108.9453125,80.8046875)"/>
<path d="M0 0 C0.33 0 0.66 0 1 0 C1.12375 1.11375 1.2475 2.2275 1.375 3.375 C1.6465813 7.03103677 1.6465813 7.03103677 4 9 C6.32275177 9.40047444 8.65739357 9.7397104 11 10 C10 12 10 12 7.0625 13.0625 C6.051875 13.371875 5.04125 13.68125 4 14 C3.01 14.495 3.01 14.495 2 15 C2 13.35 2 11.7 2 10 C1.01 9.67 0.02 9.34 -1 9 C-1.09765625 2.84765625 -1.09765625 2.84765625 -1 1 C-0.67 0.67 -0.34 0.34 0 0 Z " fill="#F9CA7D" transform="translate(76,79)"/>
<path d="M0 0 C0.33 1.32 0.66 2.64 1 4 C1.66 4 2.32 4 3 4 C2.34 6.97 1.68 9.94 1 13 C4.96 13 8.92 13 13 13 C13 13.33 13 13.66 13 14 C10.87506859 14.02693575 8.75004088 14.04636628 6.625 14.0625 C5.44164063 14.07410156 4.25828125 14.08570312 3.0390625 14.09765625 C0 14 0 14 -2 13 C-1.48041715 8.62065881 -0.94324258 4.31196609 0 0 Z " fill="#A6A6D9" transform="translate(104,94)"/>
<path d="M0 0 C3.47311819 3.79872302 4 4.55671096 4 10 C-1.94 10 -7.88 10 -14 10 C-13.34 8.68 -12.68 7.36 -12 6 C-12 6.99 -12 7.98 -12 9 C-7.71 9 -3.42 9 1 9 C0.67 6.03 0.34 3.06 0 0 Z " fill="#C8C8FE" transform="translate(116,99)"/>
<path d="M0 0 C0.66 0 1.32 0 2 0 C2 0.66 2 1.32 2 2 C2.99 2.33 3.98 2.66 5 3 C4.34 3 3.68 3 3 3 C3.33 3.99 3.66 4.98 4 6 C6.97 6.495 6.97 6.495 10 7 C10 7.33 10 7.66 10 8 C8.865625 8.12375 7.73125 8.2475 6.5625 8.375 C4.7990625 8.684375 4.7990625 8.684375 3 9 C2.67 9.66 2.34 10.32 2 11 C-0.39014869 7.51436649 -1.47274656 5.25471906 -1 1 C-0.67 0.67 -0.34 0.34 0 0 Z " fill="#A4A4D6" transform="translate(103,83)"/>
<path d="M0 0 C0.66 0 1.32 0 2 0 C4.15059309 3.53186832 4.3797728 6.66287993 4.625 10.75 C4.69976562 11.92046875 4.77453125 13.0909375 4.8515625 14.296875 C4.90054688 15.18890625 4.94953125 16.0809375 5 17 C4.34 16.67 3.68 16.34 3 16 C2.40644386 13.35139573 2.25790731 10.70802678 2 8 C1.67 9.65 1.34 11.3 1 13 C0.67 13 0.34 13 0 13 C0 8.71 0 4.42 0 0 Z " fill="#B89460" transform="translate(76,89)"/>
<path d="M0 0 C0 0.33 0 0.66 0 1 C-1.65 1.33 -3.3 1.66 -5 2 C-3.35 2.33 -1.7 2.66 0 3 C0 3.33 0 3.66 0 4 C-1.31057393 4.36122881 -2.62353624 4.71380311 -3.9375 5.0625 C-4.66839844 5.25972656 -5.39929688 5.45695312 -6.15234375 5.66015625 C-6.76207031 5.77230469 -7.37179688 5.88445312 -8 6 C-8.33 5.67 -8.66 5.34 -9 5 C-9.33 7.31 -9.66 9.62 -10 12 C-10.33 12 -10.66 12 -11 12 C-11.48192771 4.77108434 -11.48192771 4.77108434 -9.4375 1.5 C-6.17971981 -0.50478781 -3.75217167 -0.28862859 0 0 Z " fill="#C9A168" transform="translate(85,75)"/>
<path d="M0 0 C3 3 3 3 3.29296875 6.13671875 C3.25816406 7.30847656 3.22335938 8.48023437 3.1875 9.6875 C3.16042969 10.86699219 3.13335937 12.04648438 3.10546875 13.26171875 C3.07066406 14.16535156 3.03585938 15.06898437 3 16 C2.34 16 1.68 16 1 16 C0.67 10.72 0.34 5.44 0 0 Z " fill="#F9CC7F" transform="translate(87,90)"/>
<path d="M0 0 C0.99 0.33 1.98 0.66 3 1 C-0.23919511 3.86544183 -2.79161859 4.34536289 -7 5 C-7.33 5.66 -7.66 6.32 -8 7 C-8.99 6.67 -9.98 6.34 -11 6 C-10.67 4.68 -10.34 3.36 -10 2 C-8.72125 2.04125 -7.4425 2.0825 -6.125 2.125 C-3.98128508 2.24212873 -3.98128508 2.24212873 -2 2 C-1.34 1.34 -0.68 0.68 0 0 Z " fill="#9E9ECD" transform="translate(110,73)"/>
<path d="M0 0 C0.33 0 0.66 0 1 0 C2.33257403 13.6332574 2.33257403 13.6332574 1 20 C0.67 20 0.34 20 0 20 C-0.90796753 14.89268265 -0.98485796 10.46411583 -0.5 5.3125 C-0.4071875 4.31863281 -0.314375 3.32476562 -0.21875 2.30078125 C-0.11046875 1.16189453 -0.11046875 1.16189453 0 0 Z " fill="#DFB270" transform="translate(87,95)"/>
<path d="M0 0 C6.52307692 -0.36923077 6.52307692 -0.36923077 8.9375 1.5 C9.288125 1.995 9.63875 2.49 10 3 C5.99799622 4.60080151 2.95443764 3.29279692 -1 2 C-0.67 1.34 -0.34 0.68 0 0 Z " fill="#F5C67B" transform="translate(80,76)"/>
<path d="M0 0 C0.66 1.32 1.32 2.64 2 4 C1.01 4.99 0.02 5.98 -1 7 C-1.625 5.1875 -1.625 5.1875 -2 3 C-1.34 2.01 -0.68 1.02 0 0 Z M-3 5 C-3 5.99 -3 6.98 -3 8 C-4.65 7.67 -6.3 7.34 -8 7 C-8 6.67 -8 6.34 -8 6 C-6.35 5.67 -4.7 5.34 -3 5 Z " fill="#EDBD76" transform="translate(89,85)"/>
<path d="M0 0 C4 4.625 4 4.625 4 8 C3.01 8 2.02 8 1 8 C0.67 5.36 0.34 2.72 0 0 Z " fill="#BEBEF3" transform="translate(116,99)"/>
<path d="M0 0 C1.4606285 2.64738916 2 3.89448334 2 7 C-0.64 7 -3.28 7 -6 7 C-6 6.67 -6 6.34 -6 6 C-4.35 6 -2.7 6 -1 6 C-1 5.34 -1 4.68 -1 4 C-1.66 3.67 -2.32 3.34 -3 3 C-2.01 3 -1.02 3 0 3 C0 2.01 0 1.02 0 0 Z " fill="#ACACE1" transform="translate(113,74)"/>
<path d="M0 0 C0.33 0 0.66 0 1 0 C2.28571429 8.42857143 2.28571429 8.42857143 1 13 C0.67 13 0.34 13 0 13 C0 11.02 0 9.04 0 7 C-0.66 6.67 -1.32 6.34 -2 6 C-1.34 4.02 -0.68 2.04 0 0 Z " fill="#A5A5D5" transform="translate(115,83)"/>
<path d="M0 0 C0.66 0.33 1.32 0.66 2 1 C2.625 3.5625 2.625 3.5625 3 6 C2.34 5.67 1.68 5.34 1 5 C0.34 5.66 -0.32 6.32 -1 7 C-1.625 4.625 -1.625 4.625 -2 2 C-1.34 1.34 -0.68 0.68 0 0 Z " fill="#9999C5" transform="translate(116,96)"/>
</svg>
